<svg width="110" height="104" viewBox="0 0 110 104" fill="none" xmlns="http://www.w3.org/2000/svg">
<path d="M51.4033 1.9101C52.3946 1.02983 53.6743 0.543652 55 0.543652C56.3257 0.543652 57.6054 1.02983 58.5967 1.9101L107.347 45.2434C108.366 46.2115 108.969 47.5377 109.028 48.942C109.087 50.3463 108.598 51.7187 107.665 52.7692C106.731 53.8198 105.425 54.4662 104.024 54.5719C102.622 54.6777 101.234 54.2345 100.153 53.3359L98.3333 51.7272V92.623C98.3333 95.4962 97.192 98.2517 95.1603 100.283C93.1287 102.315 90.3732 103.456 87.5 103.456H22.5C19.6268 103.456 16.8713 102.315 14.8397 100.283C12.808 98.2517 11.6667 95.4962 11.6667 92.623V51.7272L9.84666 53.3359C8.76581 54.2345 7.37802 54.6777 5.97645 54.5719C4.57488 54.4662 3.26929 53.8198 2.33549 52.7692C1.40169 51.7187 0.912807 50.3463 0.972114 48.942C1.03142 47.5377 1.63428 46.2115 2.65332 45.2434L51.4033 1.9101ZM22.5 42.0855V92.623H38.75V65.5397C38.75 64.1031 39.3207 62.7253 40.3365 61.7095C41.3523 60.6937 42.7301 60.123 44.1667 60.123H65.8333C67.2699 60.123 68.6477 60.6937 69.6635 61.7095C70.6793 62.7253 71.25 64.1031 71.25 65.5397V92.623H87.5V42.0909L55 13.2038L22.5 42.0855ZM60.4167 92.623V70.9563H49.5833V92.623H60.4167Z" fill="#F8F8F8"/>
</svg>
